# xmcd
#
# Track frame offsets: 
#        150
#        6694
#        20006
#        44714
#        60088
#        78538
#        96624
#        116219
#        132419
#        149225
#        165456
#        183823
#        202678
#        218221
#        233872
#
# Disc length: 3443 seconds
#
# Revision: 1
# Processed by: cddbd v1.5.2PL0 Copyright (c) Steve Scherf et al.
# Submitted via: ExactAudioCopy v0.95a3
#
DISCID=df0d710f
DTITLE=Juggaknots - Use Your Confusion (Retail)
DYEAR=2006
DGENRE=Hip-Hop
TTITLE0=Here Comes...
TTITLE1=Hey
TTITLE2=Namesake
TTITLE3=Leon Phelps
TTITLE4=Strip Joint
TTITLE5=Liar, Liar (feat. Wordsworth)
TTITLE6=Use Your Confusion
TTITLE7=Smile (feat. Castro)
TTITLE8=New $$$
TTITLE9=Vows (feat. Slick Rick)
TTITLE10=Daddy's Little Girl
TTITLE11=30 Something (feat. Sadat X)
TTITLE12=Movin' the Chains
TTITLE13=Never (feat. Nine)
TTITLE14=Crazy 8's (feat. J-Treds, Lil Sci, Pop, B-Slim, Big Tone, Che
TTITLE14=Logan, Wordsworth, Herawin, Subconscious, Rob-O, Jax, Breeze
TTITLE14=Brew
EXTD=
EXTT0=
EXTT1=
EXTT2=
EXTT3=
EXTT4=
EXTT5=
EXTT6=
EXTT7=
EXTT8=
EXTT9=
EXTT10=
EXTT11=
EXTT12=
EXTT13=
EXTT14=
PLAYORDER=
